<svg xmlns="http://www.w3.org/2000/svg" viewBox="0 0 1920 1080"><defs><linearGradient id="bg" x2="1" y2="1"><stop stop-color="#020812"/><stop offset=".5" stop-color="#071522"/><stop offset="1" stop-color="#02070d"/></linearGradient><radialGradient id="glow"><stop stop-color="#00e5ff" stop-opacity=".35"/><stop offset="1" stop-color="#00e5ff" stop-opacity="0"/></radialGradient><pattern id="grid" width="48" height="48" patternUnits="userSpaceOnUse"><path d="M48 0H0V48" fill="none" stroke="#2c6680" stroke-opacity=".18"/></pattern></defs><rect width="1920" height="1080" fill="url(#bg)"/><rect width="1920" height="1080" fill="url(#grid)"/><circle cx="1500" cy="250" r="480" fill="url(#glow)"/><circle cx="420" cy="800" r="360" fill="url(#glow)" opacity=".35"/><g fill="none" stroke="#39d9ff" stroke-opacity=".35" stroke-width="2"><path d="M100 820 C360 570 570 690 790 430 S1210 180 1800 420"/><path d="M160 900 C450 680 660 760 900 560 S1350 390 1810 620"/><path d="M320 160 L680 340 L1040 170 L1390 350 L1710 180"/></g><g fill="#5ee38a"><circle cx="680" cy="340" r="7"/><circle cx="1040" cy="170" r="7"/><circle cx="1390" cy="350" r="7"/></g><g fill="#ff4d5f"><circle cx="790" cy="430" r="9"/><circle cx="1210" cy="180" r="9"/><circle cx="1600" cy="500" r="9"/></g><g fill="#07131e" stroke="#39d9ff" stroke-opacity=".28"><rect x="1160" y="650" width="620" height="260" rx="22"/><rect x="1260" y="710" width="130" height="100" rx="10"/><rect x="1420" y="710" width="130" height="100" rx="10"/><rect x="1580" y="710" width="130" height="100" rx="10"/></g><g stroke="#5ee38a" stroke-width="4" stroke-linecap="round" opacity=".7"><path d="M1290 780h70"/><path d="M1450 760h70"/><path d="M1610 790h70"/></g><g fill="#8aa5ba" font-family="Arial,sans-serif" font-size="28" letter-spacing="6" opacity=".35"><text x="1160" y="620">SOC INTELLIGENCE / AIR-GAPPED</text><text x="110" y="120">DETECT • INVESTIGATE • RESPOND</text></g><g opacity=".22" stroke="#00e5ff" fill="none"><circle cx="960" cy="520" r="210"/><circle cx="960" cy="520" r="290"/><path d="M670 520h580M960 230v580"/></g></svg>